<?xml version="1.0" encoding="UTF-8"?>
<!DOCTYPE svg PUBLIC "-//W3C//DTD SVG 1.1//EN" "http://www.w3.org/Graphics/SVG/1.1/DTD/svg11.dtd">
<svg xmlns="http://www.w3.org/2000/svg" version="1.1" width="1000px" height="1000px" style="shape-rendering:geometricPrecision; text-rendering:geometricPrecision; image-rendering:optimizeQuality; fill-rule:evenodd; clip-rule:evenodd" xmlns:xlink="http://www.w3.org/1999/xlink">
<g><path style="opacity:0.998" fill="#070706" d="M 572.5,-0.5 C 576.167,-0.5 579.833,-0.5 583.5,-0.5C 586.146,8.32653 585.479,16.9932 581.5,25.5C 579.095,42.9259 574.428,59.5925 567.5,75.5C 566.5,76.8333 565.5,76.8333 564.5,75.5C 545.6,70.467 526.6,70.3004 507.5,75C 495.787,78.3487 484.454,82.682 473.5,88C 463.081,93.9312 453.081,100.431 443.5,107.5C 442.662,107.158 442.328,106.492 442.5,105.5C 471.047,67.4493 505.714,36.2826 546.5,12C 554.862,7.12166 563.529,2.955 572.5,-0.5 Z"/></g>
<g><path style="opacity:1" fill="#fed521" d="M 564.5,75.5 C 554.837,96.827 545.17,118.16 535.5,139.5C 523.541,152.639 512.041,166.305 501,180.5C 481.836,200.865 461.002,219.531 438.5,236.5C 437.391,237.29 436.058,237.79 434.5,238C 505.734,231.873 567.234,253.04 619,301.5C 628.729,311.951 636.729,323.617 643,336.5C 643.199,332.606 642.532,328.939 641,325.5C 702.39,355.222 752.39,398.222 791,454.5C 797.126,464.431 802.959,474.431 808.5,484.5C 810.17,487.306 809.837,489.806 807.5,492C 804.052,493.927 800.385,495.261 796.5,496C 782.509,495.577 768.509,494.911 754.5,494C 742.268,491.478 730.268,488.144 718.5,484C 712.693,482.26 707.36,479.76 702.5,476.5C 697.213,469.175 692.38,461.508 688,453.5C 676.11,430.794 665.277,407.794 655.5,384.5C 655.383,375.744 653.55,367.41 650,359.5C 649.833,360 649.667,360.5 649.5,361C 653.692,374.716 654.192,388.549 651,402.5C 646,415.833 641,429.167 636,442.5C 632.614,452.929 630.448,463.596 629.5,474.5C 628.686,479.119 628.353,483.786 628.5,488.5C 627.833,491.167 627.167,493.833 626.5,496.5C 625.241,492.975 623.241,489.975 620.5,487.5C 613.109,477.474 603.109,472.807 590.5,473.5C 567.98,474.166 552.813,485.166 545,506.5C 539.439,527.863 545.939,544.363 564.5,556C 573.117,557.22 581.784,558.22 590.5,559C 562.512,573.272 532.845,582.272 501.5,586C 516.453,586.19 531.119,584.19 545.5,580C 557.306,575.926 568.972,571.592 580.5,567C 586.598,563.871 592.432,560.371 598,556.5C 635.284,575.134 668.618,599.134 698,628.5C 705.061,636.294 711.395,644.628 717,653.5C 718.488,655.16 720.321,656.16 722.5,656.5C 725.899,657.351 728.233,659.351 729.5,662.5C 729.32,663.554 728.987,664.554 728.5,665.5C 726.091,666.701 724.091,668.367 722.5,670.5C 724.741,670.498 727.074,670.832 729.5,671.5C 731.696,674.56 733.363,677.893 734.5,681.5C 733.9,683.936 732.4,685.602 730,686.5C 730.326,690.47 730.326,694.47 730,698.5C 727.603,700.782 724.769,702.116 721.5,702.5C 723.432,712.056 719.599,717.056 710,717.5C 709.526,721.422 708.359,725.088 706.5,728.5C 706.44,729.043 706.107,729.376 705.5,729.5C 699.231,727.248 692.897,725.248 686.5,723.5C 644.284,720.553 607.284,705.22 575.5,677.5C 575.5,675.5 575.5,673.5 575.5,671.5C 576.629,669.372 576.796,667.039 576,664.5C 575.648,666.247 575.148,667.914 574.5,669.5C 570.121,694.378 569.621,719.378 573,744.5C 575.424,761.713 578.258,778.713 581.5,795.5C 584.518,816.723 588.685,837.723 594,858.5C 594.498,861.482 594.665,864.482 594.5,867.5C 594.5,870.5 594.5,873.5 594.5,876.5C 586.081,885.727 575.748,891.893 563.5,895C 552.998,896.167 542.498,897.334 532,898.5C 501.704,895.718 471.537,891.885 441.5,887C 374.862,883.646 308.196,882.646 241.5,884C 222.564,881.861 206.231,874.361 192.5,861.5C 189.237,848.985 188.737,836.318 191,823.5C 203.204,788.361 215.871,753.361 229,718.5C 235.239,697.052 240.406,675.385 244.5,653.5C 245.15,653.196 245.817,652.863 246.5,652.5C 255.091,657.045 263.091,656.212 270.5,650C 277.633,644.315 279.466,637.149 276,628.5C 242.144,585.479 215.477,538.146 196,486.5C 195.263,484.404 194.097,482.737 192.5,481.5C 189.932,448.723 187.932,415.889 186.5,383C 186.833,379.833 187.167,376.667 187.5,373.5C 190.039,372.885 192.539,372.218 195,371.5C 196.674,367.979 197.84,364.313 198.5,360.5C 202.163,361.341 205.83,361.841 209.5,362C 212.317,359.362 214.65,356.362 216.5,353C 217.833,352.333 219.167,352.333 220.5,353C 222.233,354.916 224.4,356.082 227,356.5C 229.882,353.727 233.215,351.727 237,350.5C 237.833,350.667 238.667,350.833 239.5,351C 241.651,354.151 244.151,356.984 247,359.5C 254.047,354.314 258.714,355.981 261,364.5C 273.219,376.795 284.386,389.795 294.5,403.5C 321.581,443.681 341.748,487.347 355,534.5C 350.749,511.969 343.583,490.302 333.5,469.5C 339.433,464.743 345.266,459.743 351,454.5C 365.794,436.172 367.127,416.838 355,396.5C 342.612,381.232 327.112,376.899 308.5,383.5C 310.833,380.997 312.999,378.331 315,375.5C 321.742,359.685 328.742,344.018 336,328.5C 343.821,312.674 351.821,297.008 360,281.5C 371.983,265.763 387.15,254.263 405.5,247C 397.173,247.725 389.84,250.891 383.5,256.5C 383.167,256.167 382.833,255.833 382.5,255.5C 388.142,213.23 401.976,173.897 424,137.5C 430.749,127.6 437.249,117.6 443.5,107.5C 453.081,100.431 463.081,93.9312 473.5,88C 484.454,82.682 495.787,78.3487 507.5,75C 526.6,70.3004 545.6,70.467 564.5,75.5 Z"/></g>
<g><path style="opacity:1" fill="#dc9420" d="M 535.5,139.5 C 520.064,167.36 501.897,193.36 481,217.5C 475.469,223.366 469.635,228.866 463.5,234C 455.168,234.917 446.834,235.75 438.5,236.5C 461.002,219.531 481.836,200.865 501,180.5C 512.041,166.305 523.541,152.639 535.5,139.5 Z"/></g>
<g><path style="opacity:0.078" fill="#c1c1c1" d="M 469.5,232.5 C 471.167,233.167 472.833,233.833 474.5,234.5C 472.143,234.663 469.81,234.497 467.5,234C 468.044,233.283 468.711,232.783 469.5,232.5 Z"/></g>
<g><path style="opacity:0.921" fill="#24221d" d="M 564.5,75.5 C 565.5,76.8333 566.5,76.8333 567.5,75.5C 550.691,120.785 527.858,162.785 499,201.5C 489.328,212.005 479.494,222.339 469.5,232.5C 468.711,232.783 468.044,233.283 467.5,234C 469.81,234.497 472.143,234.663 474.5,234.5C 531.793,238.398 580.96,260.398 622,300.5C 627.691,307.356 633.191,314.356 638.5,321.5C 705.339,351.882 758.506,398.216 798,460.5C 803.276,468.717 807.776,477.384 811.5,486.5C 810.21,485.942 809.377,484.942 809,483.5C 808.601,483.728 808.435,484.062 808.5,484.5C 802.959,474.431 797.126,464.431 791,454.5C 752.39,398.222 702.39,355.222 641,325.5C 642.532,328.939 643.199,332.606 643,336.5C 636.729,323.617 628.729,311.951 619,301.5C 567.234,253.04 505.734,231.873 434.5,238C 436.058,237.79 437.391,237.29 438.5,236.5C 446.834,235.75 455.168,234.917 463.5,234C 469.635,228.866 475.469,223.366 481,217.5C 501.897,193.36 520.064,167.36 535.5,139.5C 545.17,118.16 554.837,96.827 564.5,75.5 Z"/></g>
<g><path style="opacity:1" fill="#050401" d="M 383.5,327.5 C 400.957,323.369 413.79,329.035 422,344.5C 425.923,372.575 413.756,386.075 385.5,385C 367.21,377.157 361.044,363.657 367,344.5C 368.271,341.567 369.938,338.901 372,336.5C 375.773,333.371 379.606,330.371 383.5,327.5 Z"/></g>
<g><path style="opacity:1" fill="#f9f9f9" d="M 400.5,332.5 C 414.418,332.226 419.251,338.559 415,351.5C 410.86,356.211 405.694,357.711 399.5,356C 393.636,352.434 391.47,347.267 393,340.5C 394.69,336.979 397.19,334.312 400.5,332.5 Z"/></g>
<g><path style="opacity:0.893" fill="#25221d" d="M 442.5,105.5 C 442.328,106.492 442.662,107.158 443.5,107.5C 437.249,117.6 430.749,127.6 424,137.5C 401.976,173.897 388.142,213.23 382.5,255.5C 382.833,255.833 383.167,256.167 383.5,256.5C 389.84,250.891 397.173,247.725 405.5,247C 387.15,254.263 371.983,265.763 360,281.5C 351.821,297.008 343.821,312.674 336,328.5C 328.742,344.018 321.742,359.685 315,375.5C 312.999,378.331 310.833,380.997 308.5,383.5C 309.167,384.167 309.833,384.833 310.5,385.5C 302.783,388.55 297.45,393.884 294.5,401.5C 294.5,402.167 294.5,402.833 294.5,403.5C 284.386,389.795 273.219,376.795 261,364.5C 258.714,355.981 254.047,354.314 247,359.5C 244.151,356.984 241.651,354.151 239.5,351C 238.667,350.833 237.833,350.667 237,350.5C 233.215,351.727 229.882,353.727 227,356.5C 224.4,356.082 222.233,354.916 220.5,353C 219.167,352.333 217.833,352.333 216.5,353C 214.65,356.362 212.317,359.362 209.5,362C 205.83,361.841 202.163,361.341 198.5,360.5C 197.84,364.313 196.674,367.979 195,371.5C 192.539,372.218 190.039,372.885 187.5,373.5C 187.167,376.667 186.833,379.833 186.5,383C 187.932,415.889 189.932,448.723 192.5,481.5C 196.013,506.189 202.18,530.189 211,553.5C 222.315,582.467 236.481,609.801 253.5,635.5C 252.998,636.521 252.332,636.688 251.5,636C 250.274,633.473 248.608,631.306 246.5,629.5C 245.773,637.525 245.106,645.525 244.5,653.5C 240.406,675.385 235.239,697.052 229,718.5C 215.871,753.361 203.204,788.361 191,823.5C 188.737,836.318 189.237,848.985 192.5,861.5C 199.298,887.277 215.298,904.444 240.5,913C 235.294,913.489 230.461,912.323 226,909.5C 217.039,914.298 208.206,919.298 199.5,924.5C 188.211,932.616 177.044,940.95 166,949.5C 164.367,951.453 163.201,953.62 162.5,956C 162.769,957.607 163.603,958.774 165,959.5C 174.166,949.177 185.333,942.344 198.5,939C 186.88,944.636 176.38,951.803 167,960.5C 166.505,962.473 166.338,964.473 166.5,966.5C 168.288,966.785 169.955,966.452 171.5,965.5C 173.688,962.478 176.355,959.978 179.5,958C 186.857,954.736 194.357,951.903 202,949.5C 202.833,949.667 203.667,949.833 204.5,950C 195.116,953.193 186.116,957.193 177.5,962C 175.787,963.378 174.453,965.045 173.5,967C 178.833,967.667 184.167,967.667 189.5,967C 205.541,964.732 221.541,962.232 237.5,959.5C 261.192,954.529 284.192,947.362 306.5,938C 308.241,936.38 310.075,934.88 312,933.5C 312.72,931.888 312.554,930.388 311.5,929C 302.965,928.726 294.631,927.393 286.5,925C 309.783,926.782 333.117,926.949 356.5,925.5C 368.182,925.649 379.848,926.149 391.5,927C 431.797,931.107 472.131,934.774 512.5,938C 510.091,938.935 507.591,939.435 505,939.5C 495.187,938.621 485.354,938.288 475.5,938.5C 476.431,942.841 478.764,946.341 482.5,949C 503.457,962.477 525.79,973.311 549.5,981.5C 560.239,984.699 570.906,988.199 581.5,992C 589.719,994.242 598.052,995.742 606.5,996.5C 606.509,994.692 606.009,993.025 605,991.5C 599.167,987 593.333,982.5 587.5,978C 587.833,977.833 588.167,977.667 588.5,977.5C 594.914,981.082 600.914,985.249 606.5,990C 607.781,992.427 608.781,994.927 609.5,997.5C 614.712,998.508 616.878,996.508 616,991.5C 609.694,984.105 602.86,977.272 595.5,971C 596.908,970.685 598.241,971.018 599.5,972C 606.773,977.284 613.106,983.451 618.5,990.5C 619.631,988.926 619.798,987.259 619,985.5C 610.795,974.63 601.295,964.963 590.5,956.5C 580.622,946.956 569.622,938.956 557.5,932.5C 558.209,931.596 559.209,931.263 560.5,931.5C 573.471,940.657 586.471,949.824 599.5,959C 604.986,965.453 610.82,971.62 617,977.5C 619.893,980.619 621.726,984.286 622.5,988.5C 620.562,992.043 618.895,995.71 617.5,999.5C 611.833,999.5 606.167,999.5 600.5,999.5C 600.167,998.167 599.833,998.167 599.5,999.5C 599.167,999.5 598.833,999.5 598.5,999.5C 566.713,991.287 535.713,980.12 505.5,966C 494.255,960.793 484.089,953.959 475,945.5C 473.311,943.24 472.144,940.74 471.5,938C 441.101,935.074 410.768,932.074 380.5,929C 359.162,928.47 337.828,928.636 316.5,929.5C 315.586,934.258 312.919,937.758 308.5,940C 301.174,944.164 293.507,947.498 285.5,950C 249.388,960.286 212.388,967.286 174.5,971C 171.102,970.02 167.769,968.854 164.5,967.5C 163.745,963.603 162.078,959.77 159.5,956C 160.472,953.889 161.305,951.722 162,949.5C 167.198,943.967 172.698,938.8 178.5,934C 192.732,925.056 207.066,916.389 221.5,908C 204.478,895.88 193.811,879.88 189.5,860C 185.78,845.86 185.947,831.693 190,817.5C 201.502,786.67 212.835,755.67 224,724.5C 230.116,703.846 235.616,683.346 240.5,663C 240.043,662.586 239.709,662.086 239.5,661.5C 242.396,649.33 243.563,636.997 243,624.5C 203.136,561.31 183.969,492.81 185.5,419C 185.028,405.002 184.028,391.002 182.5,377C 182.796,375.112 183.296,373.278 184,371.5C 186.82,369.794 189.654,368.961 192.5,369C 193.996,365.851 195.496,362.684 197,359.5C 198,358.833 199,358.167 200,357.5C 202.732,357.459 205.566,357.626 208.5,358C 212.548,349.09 218.381,347.59 226,353.5C 229.492,350.837 233.325,348.837 237.5,347.5C 241.447,349.612 244.613,352.612 247,356.5C 250.502,353.399 254.335,352.899 258.5,355C 269.87,368.264 280.87,381.764 291.5,395.5C 292.274,396.711 293.107,396.711 294,395.5C 298.62,388.88 303.953,382.88 310,377.5C 318.334,363.163 325.334,348.163 331,332.5C 340.682,313.802 350.348,295.135 360,276.5C 365.64,270.194 371.64,264.194 378,258.5C 386.614,201.757 408.114,150.757 442.5,105.5 Z"/></g>
<g><path style="opacity:1" fill="#fb2e12" d="M 294.5,401.5 C 297.45,393.884 302.783,388.55 310.5,385.5C 336.372,379.023 352.872,388.69 360,414.5C 362.149,437.87 352.983,455.203 332.5,466.5C 322.081,443.301 309.414,421.635 294.5,401.5 Z"/></g>
<g><path style="opacity:1" fill="#dd9520" d="M 655.5,384.5 C 665.277,407.794 676.11,430.794 688,453.5C 692.38,461.508 697.213,469.175 702.5,476.5C 698.562,473.902 694.895,470.902 691.5,467.5C 676.713,450.872 663.213,433.205 651,414.5C 650.333,412.833 650.333,411.167 651,409.5C 654.367,401.499 655.867,393.166 655.5,384.5 Z"/></g>
<g><path style="opacity:1" fill="#060402" d="M 580.5,392.5 C 603.264,395.02 613.431,407.686 611,430.5C 603.099,450.807 588.933,456.973 568.5,449C 549.833,431.667 549.833,414.333 568.5,397C 572.496,395.18 576.496,393.68 580.5,392.5 Z"/></g>
<g><path style="opacity:1" fill="#0e0b02" d="M 478.5,396.5 C 483.053,396.471 486.386,398.471 488.5,402.5C 485.554,403.655 482.554,403.821 479.5,403C 478.577,400.959 478.244,398.792 478.5,396.5 Z"/></g>
<g><path style="opacity:1" fill="#f7f7f7" d="M 579.5,395.5 C 589.632,395.464 594.465,400.464 594,410.5C 591.639,420.882 585.472,424.382 575.5,421C 567.891,414.848 566.724,407.681 572,399.5C 574.255,397.501 576.755,396.168 579.5,395.5 Z"/></g>
<g><path style="opacity:1" fill="#1d1104" d="M 294.5,403.5 C 294.5,402.833 294.5,402.167 294.5,401.5C 309.414,421.635 322.081,443.301 332.5,466.5C 352.983,455.203 362.149,437.87 360,414.5C 352.872,388.69 336.372,379.023 310.5,385.5C 309.833,384.833 309.167,384.167 308.5,383.5C 327.112,376.899 342.612,381.232 355,396.5C 367.127,416.838 365.794,436.172 351,454.5C 345.266,459.743 339.433,464.743 333.5,469.5C 343.583,490.302 350.749,511.969 355,534.5C 341.748,487.347 321.581,443.681 294.5,403.5 Z"/></g>
<g><path style="opacity:0.898" fill="#25211b" d="M 655.5,384.5 C 655.867,393.166 654.367,401.499 651,409.5C 650.333,411.167 650.333,412.833 651,414.5C 663.213,433.205 676.713,450.872 691.5,467.5C 690.957,467.56 690.624,467.893 690.5,468.5C 691.193,469.518 691.859,470.518 692.5,471.5C 688.942,468.448 685.442,465.114 682,461.5C 670.199,447.04 659.199,432.04 649,416.5C 641.485,433.948 635.985,451.782 632.5,470C 632.957,470.414 633.291,470.914 633.5,471.5C 632.911,474.64 632.244,477.64 631.5,480.5C 631.946,477.99 631.28,475.99 629.5,474.5C 630.448,463.596 632.614,452.929 636,442.5C 641,429.167 646,415.833 651,402.5C 654.192,388.549 653.692,374.716 649.5,361C 649.667,360.5 649.833,360 650,359.5C 653.55,367.41 655.383,375.744 655.5,384.5 Z"/></g>
<g><path style="opacity:1" fill="#190e05" d="M 415.5,416.5 C 422.49,429.082 433.323,434.749 448,433.5C 455.192,433.785 462.192,432.785 469,430.5C 473.255,433.099 476.588,436.765 479,441.5C 487.867,449.885 498.367,454.219 510.5,454.5C 515.352,454.531 520.018,454.031 524.5,453C 520.485,456.093 515.985,457.926 511,458.5C 499.976,484.076 485.809,507.576 468.5,529C 463.038,534.568 456.705,538.901 449.5,542C 433.601,546.134 423.434,540.301 419,524.5C 413.95,492.549 414.784,460.715 421.5,429C 418.032,425.564 416.032,421.397 415.5,416.5 Z"/></g>
<g><path style="opacity:1" fill="#a71c28" d="M 482.5,505.5 C 482.509,503.692 482.009,502.025 481,500.5C 472.288,488.507 460.454,481.34 445.5,479C 436.506,478.5 427.506,478.334 418.5,478.5C 418.171,472.794 418.505,467.128 419.5,461.5C 445.521,450.379 468.354,455.046 488,475.5C 489.667,478.167 491.333,480.833 493,483.5C 493.667,485.5 493.667,487.5 493,489.5C 489.637,495.009 486.137,500.342 482.5,505.5 Z"/></g>
<g><path style="opacity:1" fill="#6d0706" d="M 422.5,430.5 C 426.812,431.986 431.145,433.486 435.5,435C 447.227,435.603 458.894,435.269 470.5,434C 479.69,447.436 492.357,455.603 508.5,458.5C 503.86,466.579 499.693,474.913 496,483.5C 481.659,460.342 460.826,450.509 433.5,454C 428.893,454.734 424.559,456.234 420.5,458.5C 420.167,457.833 419.833,457.167 419.5,456.5C 421.158,447.906 422.158,439.239 422.5,430.5 Z"/></g>
<g><path style="opacity:0.998" fill="#090705" d="M 691.5,467.5 C 694.895,470.902 698.562,473.902 702.5,476.5C 707.36,479.76 712.693,482.26 718.5,484C 730.268,488.144 742.268,491.478 754.5,494C 768.509,494.911 782.509,495.577 796.5,496C 800.385,495.261 804.052,493.927 807.5,492C 809.837,489.806 810.17,487.306 808.5,484.5C 808.435,484.062 808.601,483.728 809,483.5C 809.377,484.942 810.21,485.942 811.5,486.5C 821.566,505.337 828.9,525.337 833.5,546.5C 826.199,546.706 819.199,545.373 812.5,542.5C 809.762,544.967 807.762,547.967 806.5,551.5C 805.167,551.833 803.833,552.167 802.5,552.5C 804.534,548.431 806.534,544.431 808.5,540.5C 779.239,533.26 752.573,520.76 728.5,503C 695.835,502.5 663.168,502.333 630.5,502.5C 630.037,505.482 629.704,508.482 629.5,511.5C 628.833,509.833 628.167,508.167 627.5,506.5C 625.918,500.004 623.252,494.004 619.5,488.5C 620.167,488.5 620.5,488.167 620.5,487.5C 623.241,489.975 625.241,492.975 626.5,496.5C 626.987,497.473 627.487,498.473 628,499.5C 628.499,495.848 628.665,492.182 628.5,488.5C 628.353,483.786 628.686,479.119 629.5,474.5C 631.28,475.99 631.946,477.99 631.5,480.5C 631.524,486.857 631.19,493.19 630.5,499.5C 661.664,500.664 692.997,500.831 724.5,500C 723.956,499.283 723.289,498.783 722.5,498.5C 715.351,494.076 708.685,488.91 702.5,483C 698.561,479.571 695.228,475.737 692.5,471.5C 691.859,470.518 691.193,469.518 690.5,468.5C 690.624,467.893 690.957,467.56 691.5,467.5 Z"/></g>
<g><path style="opacity:1" fill="#fc2e12" d="M 619.5,488.5 C 623.252,494.004 625.918,500.004 627.5,506.5C 626.36,520.779 620.86,533.113 611,543.5C 599.901,556.386 586.068,560.219 569.5,555C 551.14,546.789 543.307,532.622 546,512.5C 555.719,481.557 576.219,470.39 607.5,479C 611.95,481.619 615.95,484.786 619.5,488.5 Z"/></g>
<g><path style="opacity:1" fill="#ee535f" d="M 418.5,478.5 C 427.506,478.334 436.506,478.5 445.5,479C 460.454,481.34 472.288,488.507 481,500.5C 482.009,502.025 482.509,503.692 482.5,505.5C 474.79,520.045 463.79,531.545 449.5,540C 433.646,543.463 424.146,537.296 421,521.5C 420.333,518.833 419.667,516.167 419,513.5C 418.5,501.838 418.333,490.171 418.5,478.5 Z"/></g>
<g><path style="opacity:1" fill="#df9620" d="M 192.5,481.5 C 194.097,482.737 195.263,484.404 196,486.5C 215.477,538.146 242.144,585.479 276,628.5C 279.466,637.149 277.633,644.315 270.5,650C 263.091,656.212 255.091,657.045 246.5,652.5C 245.817,652.863 245.15,653.196 244.5,653.5C 245.106,645.525 245.773,637.525 246.5,629.5C 248.608,631.306 250.274,633.473 251.5,636C 252.332,636.688 252.998,636.521 253.5,635.5C 236.481,609.801 222.315,582.467 211,553.5C 202.18,530.189 196.013,506.189 192.5,481.5 Z"/></g>
<g><path style="opacity:1" fill="#977f14" d="M 628.5,488.5 C 628.665,492.182 628.499,495.848 628,499.5C 627.487,498.473 626.987,497.473 626.5,496.5C 627.167,493.833 627.833,491.167 628.5,488.5 Z"/></g>
<g><path style="opacity:0.149" fill="#a3a3a3" d="M 722.5,498.5 C 723.289,498.783 723.956,499.283 724.5,500C 692.997,500.831 661.664,500.664 630.5,499.5C 661.338,499.831 692.005,499.498 722.5,498.5 Z"/></g>
<g><path style="opacity:1" fill="#fed521" d="M 802.5,552.5 C 783.957,584.572 765.624,616.905 747.5,649.5C 741.796,646.642 736.463,643.142 731.5,639C 691.764,607.814 652.097,576.647 612.5,545.5C 621.349,535.803 627.015,524.469 629.5,511.5C 629.704,508.482 630.037,505.482 630.5,502.5C 663.168,502.333 695.835,502.5 728.5,503C 752.573,520.76 779.239,533.26 808.5,540.5C 806.534,544.431 804.534,548.431 802.5,552.5 Z"/></g>
<g><path style="opacity:1" fill="#1d1304" d="M 620.5,487.5 C 620.5,488.167 620.167,488.5 619.5,488.5C 615.95,484.786 611.95,481.619 607.5,479C 576.219,470.39 555.719,481.557 546,512.5C 543.307,532.622 551.14,546.789 569.5,555C 586.068,560.219 599.901,556.386 611,543.5C 620.86,533.113 626.36,520.779 627.5,506.5C 628.167,508.167 628.833,509.833 629.5,511.5C 627.015,524.469 621.349,535.803 612.5,545.5C 608.202,548.463 604.202,551.797 600.5,555.5C 610.158,560.662 619.824,565.829 629.5,571C 643.167,580.667 656.833,590.333 670.5,600C 689.469,614.966 705.635,632.466 719,652.5C 720.652,653.399 722.152,654.399 723.5,655.5C 722.833,655.5 722.5,655.833 722.5,656.5C 720.321,656.16 718.488,655.16 717,653.5C 711.395,644.628 705.061,636.294 698,628.5C 668.618,599.134 635.284,575.134 598,556.5C 592.432,560.371 586.598,563.871 580.5,567C 568.972,571.592 557.306,575.926 545.5,580C 531.119,584.19 516.453,586.19 501.5,586C 532.845,582.272 562.512,573.272 590.5,559C 581.784,558.22 573.117,557.22 564.5,556C 545.939,544.363 539.439,527.863 545,506.5C 552.813,485.166 567.98,474.166 590.5,473.5C 603.109,472.807 613.109,477.474 620.5,487.5 Z"/></g>
<g><path style="opacity:1" fill="#dd9520" d="M 612.5,545.5 C 652.097,576.647 691.764,607.814 731.5,639C 736.463,643.142 741.796,646.642 747.5,649.5C 745.968,652.057 744.301,654.557 742.5,657C 736.137,657.096 729.804,656.596 723.5,655.5C 722.152,654.399 720.652,653.399 719,652.5C 705.635,632.466 689.469,614.966 670.5,600C 656.833,590.333 643.167,580.667 629.5,571C 619.824,565.829 610.158,560.662 600.5,555.5C 604.202,551.797 608.202,548.463 612.5,545.5 Z"/></g>
<g><path style="opacity:1" fill="#e19721" d="M 379.5,561.5 C 389.835,571.944 402.168,579.444 416.5,584C 427.312,587.414 438.312,590.08 449.5,592C 459.873,592.565 470.207,592.565 480.5,592C 471.182,599.983 460.849,606.317 449.5,611C 438.653,613.598 427.653,614.598 416.5,614C 407.567,610.406 400.4,604.573 395,596.5C 388.244,585.565 383.077,573.898 379.5,561.5 Z"/></g>
<g><path style="opacity:0.969" fill="#26241e" d="M 806.5,551.5 C 785.215,587.462 764.381,623.795 744,660.5C 739.775,660.626 735.608,660.626 731.5,660.5C 733.943,663.195 733.61,665.695 730.5,668C 733.886,672.441 736.219,677.441 737.5,683C 736.179,685.654 734.179,687.654 731.5,689C 735.68,696.656 733.68,701.822 725.5,704.5C 724.643,708.596 723.476,712.596 722,716.5C 719.25,718.718 716.083,720.051 712.5,720.5C 712.03,724.201 710.697,727.534 708.5,730.5C 706.027,731.797 703.693,731.797 701.5,730.5C 702.612,729.628 703.946,729.628 705.5,730.5C 707.418,730.139 707.751,729.472 706.5,728.5C 708.359,725.088 709.526,721.422 710,717.5C 719.599,717.056 723.432,712.056 721.5,702.5C 724.769,702.116 727.603,700.782 730,698.5C 730.326,694.47 730.326,690.47 730,686.5C 732.4,685.602 733.9,683.936 734.5,681.5C 733.363,677.893 731.696,674.56 729.5,671.5C 727.074,670.832 724.741,670.498 722.5,670.5C 724.091,668.367 726.091,666.701 728.5,665.5C 728.987,664.554 729.32,663.554 729.5,662.5C 728.233,659.351 725.899,657.351 722.5,656.5C 722.5,655.833 722.833,655.5 723.5,655.5C 729.804,656.596 736.137,657.096 742.5,657C 744.301,654.557 745.968,652.057 747.5,649.5C 765.624,616.905 783.957,584.572 802.5,552.5C 803.833,552.167 805.167,551.833 806.5,551.5 Z"/></g>
<g><path style="opacity:1" fill="#75620f" d="M 575.5,671.5 C 575.672,670.508 575.338,669.842 574.5,669.5C 575.148,667.914 575.648,666.247 576,664.5C 576.796,667.039 576.629,669.372 575.5,671.5 Z"/></g>
<g><path style="opacity:1" fill="#de9520" d="M 575.5,677.5 C 607.284,705.22 644.284,720.553 686.5,723.5C 676.074,725.482 665.407,726.482 654.5,726.5C 626.554,727.8 599.721,723.133 574,712.5C 573.344,700.637 573.844,688.97 575.5,677.5 Z"/></g>
<g><path style="opacity:1" fill="#df9520" d="M 621.5,762.5 C 608.674,771.747 595.674,780.747 582.5,789.5C 577.904,767.371 574.904,744.871 573.5,722C 573.833,719.833 574.167,717.667 574.5,715.5C 590.356,721.339 606.69,725.339 623.5,727.5C 624.112,739.419 623.446,751.086 621.5,762.5 Z"/></g>
<g><path style="opacity:0.974" fill="#251f17" d="M 574.5,669.5 C 575.338,669.842 575.672,670.508 575.5,671.5C 575.5,673.5 575.5,675.5 575.5,677.5C 573.844,688.97 573.344,700.637 574,712.5C 599.721,723.133 626.554,727.8 654.5,726.5C 665.407,726.482 676.074,725.482 686.5,723.5C 692.897,725.248 699.231,727.248 705.5,729.5C 706.107,729.376 706.44,729.043 706.5,728.5C 707.751,729.472 707.418,730.139 705.5,730.5C 703.946,729.628 702.612,729.628 701.5,730.5C 696.911,728.971 692.244,727.638 687.5,726.5C 667.662,730.825 647.662,731.491 627.5,728.5C 627.811,739.914 627.477,751.248 626.5,762.5C 624.833,762.5 623.167,762.5 621.5,762.5C 623.446,751.086 624.112,739.419 623.5,727.5C 606.69,725.339 590.356,721.339 574.5,715.5C 574.167,717.667 573.833,719.833 573.5,722C 574.904,744.871 577.904,767.371 582.5,789.5C 581.659,791.379 581.325,793.379 581.5,795.5C 578.258,778.713 575.424,761.713 573,744.5C 569.621,719.378 570.121,694.378 574.5,669.5 Z"/></g>
<g><path style="opacity:0.917" fill="#24221f" d="M 621.5,762.5 C 623.167,762.5 624.833,762.5 626.5,762.5C 611.714,772.736 597.048,783.236 582.5,794C 586.87,815.579 591.704,837.079 597,858.5C 597.499,864.157 597.666,869.824 597.5,875.5C 595.902,873.143 594.902,870.477 594.5,867.5C 594.665,864.482 594.498,861.482 594,858.5C 588.685,837.723 584.518,816.723 581.5,795.5C 581.325,793.379 581.659,791.379 582.5,789.5C 595.674,780.747 608.674,771.747 621.5,762.5 Z"/></g>
<g><path style="opacity:1" fill="#df9620" d="M 192.5,861.5 C 206.231,874.361 222.564,881.861 241.5,884C 308.196,882.646 374.862,883.646 441.5,887C 471.537,891.885 501.704,895.718 532,898.5C 542.498,897.334 552.998,896.167 563.5,895C 575.748,891.893 586.081,885.727 594.5,876.5C 593.08,891.5 586.747,904.333 575.5,915C 570.075,920.218 564.075,924.718 557.5,928.5C 556.218,929.958 556.218,931.292 557.5,932.5C 569.622,938.956 580.622,946.956 590.5,956.5C 575.869,957.434 563.369,963.1 553,973.5C 551.519,976.11 550.352,978.777 549.5,981.5C 525.79,973.311 503.457,962.477 482.5,949C 478.764,946.341 476.431,942.841 475.5,938.5C 485.354,938.288 495.187,938.621 505,939.5C 507.591,939.435 510.091,938.935 512.5,938C 472.131,934.774 431.797,931.107 391.5,927C 379.848,926.149 368.182,925.649 356.5,925.5C 333.117,926.949 309.783,926.782 286.5,925C 294.631,927.393 302.965,928.726 311.5,929C 312.554,930.388 312.72,931.888 312,933.5C 310.075,934.88 308.241,936.38 306.5,938C 284.192,947.362 261.192,954.529 237.5,959.5C 236.223,944.036 228.223,933.536 213.5,928C 208.899,926.516 204.232,925.35 199.5,924.5C 208.206,919.298 217.039,914.298 226,909.5C 230.461,912.323 235.294,913.489 240.5,913C 215.298,904.444 199.298,887.277 192.5,861.5 Z"/></g>
<g><path style="opacity:0.745" fill="#4d453b" d="M 594.5,867.5 C 594.902,870.477 595.902,873.143 597.5,875.5C 593.291,899.444 580.624,917.277 559.5,929C 559.167,929.333 558.833,929.667 558.5,930C 559.416,930.278 560.082,930.778 560.5,931.5C 559.209,931.263 558.209,931.596 557.5,932.5C 556.218,931.292 556.218,929.958 557.5,928.5C 564.075,924.718 570.075,920.218 575.5,915C 586.747,904.333 593.08,891.5 594.5,876.5C 594.5,873.5 594.5,870.5 594.5,867.5 Z"/></g>
<g><path style="opacity:1" fill="#f9d121" d="M 199.5,924.5 C 204.232,925.35 208.899,926.516 213.5,928C 228.223,933.536 236.223,944.036 237.5,959.5C 221.541,962.232 205.541,964.732 189.5,967C 184.167,967.667 178.833,967.667 173.5,967C 174.453,965.045 175.787,963.378 177.5,962C 186.116,957.193 195.116,953.193 204.5,950C 203.667,949.833 202.833,949.667 202,949.5C 194.357,951.903 186.857,954.736 179.5,958C 176.355,959.978 173.688,962.478 171.5,965.5C 169.955,966.452 168.288,966.785 166.5,966.5C 166.338,964.473 166.505,962.473 167,960.5C 176.38,951.803 186.88,944.636 198.5,939C 185.333,942.344 174.166,949.177 165,959.5C 163.603,958.774 162.769,957.607 162.5,956C 163.201,953.62 164.367,951.453 166,949.5C 177.044,940.95 188.211,932.616 199.5,924.5 Z"/></g>
<g><path style="opacity:1" fill="#322209" d="M 550.5,930.5 C 554.29,930.008 554.956,930.841 552.5,933C 549.594,934.318 546.594,934.652 543.5,934C 546.069,933.102 548.402,931.935 550.5,930.5 Z"/></g>
<g><path style="opacity:1" fill="#f8cf21" d="M 590.5,956.5 C 601.295,964.963 610.795,974.63 619,985.5C 619.798,987.259 619.631,988.926 618.5,990.5C 613.106,983.451 606.773,977.284 599.5,972C 598.241,971.018 596.908,970.685 595.5,971C 602.86,977.272 609.694,984.105 616,991.5C 616.878,996.508 614.712,998.508 609.5,997.5C 608.781,994.927 607.781,992.427 606.5,990C 600.914,985.249 594.914,981.082 588.5,977.5C 588.167,977.667 587.833,977.833 587.5,978C 593.333,982.5 599.167,987 605,991.5C 606.009,993.025 606.509,994.692 606.5,996.5C 598.052,995.742 589.719,994.242 581.5,992C 570.906,988.199 560.239,984.699 549.5,981.5C 550.352,978.777 551.519,976.11 553,973.5C 563.369,963.1 575.869,957.434 590.5,956.5 Z"/></g>
</svg>
